<svg width="452" height="136" viewBox="0 0 452 136" fill="none" xmlns="http://www.w3.org/2000/svg">
<path d="M93.287 48.5C100.99 37.6844 104.918 26.5063 99.4558 21.0438C93.9933 15.5813 82.8152 19.5094 71.9995 27.2125C61.1839 19.5094 50.0058 15.5813 44.5433 21.0438C39.0808 26.5063 43.0089 37.6844 50.712 48.5C43.0089 59.3156 39.0808 70.4938 44.5433 75.9563C46.3027 77.7156 48.6527 78.5 51.3902 78.5C57.162 78.5 64.6652 75.0094 72.0152 69.7875C79.3339 75.0094 86.8339 78.5 92.6245 78.5C95.362 78.5 97.7152 77.7125 99.4714 75.9563C104.918 70.4938 100.99 59.3156 93.287 48.5ZM95.9214 24.5782C98.3089 26.9657 96.6964 34.7031 90.1339 44.3531C88.0578 41.7831 85.8474 39.3245 83.512 36.9875C81.174 34.6562 78.7154 32.449 76.1464 30.375C85.7964 23.8125 93.5339 22.1907 95.9214 24.5782ZM48.0777 24.5782C48.7652 23.8875 49.8995 23.5313 51.3964 23.5313C55.0902 23.5313 60.987 25.6875 67.8495 30.375C65.2822 32.4498 62.8247 34.6569 60.487 36.9875C58.1548 39.3247 55.9476 41.7833 53.8745 44.3531C47.312 34.7031 45.6902 26.9657 48.0777 24.5782ZM48.0777 72.4219C45.6902 70.0344 47.312 62.2969 53.8745 52.6469C55.9506 55.2169 58.161 57.6756 60.4964 60.0125C62.8321 62.3429 65.2875 64.55 67.8527 66.625C58.2027 73.1875 50.4652 74.8094 48.0777 72.4219ZM71.9995 52.25C71.2579 52.25 70.5328 52.0301 69.9162 51.618C69.2995 51.206 68.8188 50.6203 68.535 49.9351C68.2512 49.2499 68.1769 48.4959 68.3216 47.7684C68.4663 47.041 68.8234 46.3728 69.3479 45.8484C69.8723 45.3239 70.5405 44.9668 71.268 44.8221C71.9954 44.6774 72.7494 44.7516 73.4346 45.0355C74.1198 45.3193 74.7055 45.8 75.1175 46.4166C75.5296 47.0333 75.7495 47.7583 75.7495 48.5C75.7495 49.4946 75.3545 50.4484 74.6512 51.1517C73.9479 51.8549 72.9941 52.25 71.9995 52.25ZM95.9214 72.425C93.5339 74.8156 85.7964 73.2 76.1464 66.6375C78.715 64.5597 81.1736 62.3494 83.512 60.0156C85.8443 57.6775 88.0516 55.2178 90.1245 52.6469C96.687 62.2969 98.3089 70.0344 95.9214 72.4219V72.425Z" fill="#856DAD"/>
<path d="M127.739 78V19.8182H149.557C154.027 19.8182 157.777 20.5947 160.807 22.1477C163.856 23.7008 166.157 25.8788 167.71 28.6818C169.282 31.4659 170.068 34.714 170.068 38.4261C170.068 42.1572 169.273 45.3958 167.682 48.142C166.11 50.8693 163.79 52.9811 160.722 54.4773C157.653 55.9545 153.884 56.6932 149.415 56.6932H133.875V47.9432H147.994C150.608 47.9432 152.748 47.5833 154.415 46.8636C156.081 46.125 157.313 45.0549 158.108 43.6534C158.922 42.233 159.33 40.4905 159.33 38.4261C159.33 36.3617 158.922 34.6004 158.108 33.142C157.294 31.6648 156.053 30.5473 154.386 29.7898C152.72 29.0133 150.57 28.625 147.938 28.625H138.278V78H127.739ZM157.795 51.6364L172.199 78H160.438L146.29 51.6364H157.795ZM191.872 78.8807C189.107 78.8807 186.616 78.3883 184.401 77.4034C182.204 76.3996 180.461 74.9223 179.173 72.9716C177.904 71.0208 177.27 68.6155 177.27 65.7557C177.27 63.2936 177.724 61.2576 178.634 59.6477C179.543 58.0379 180.783 56.75 182.355 55.7841C183.927 54.8182 185.698 54.089 187.668 53.5966C189.656 53.0852 191.711 52.7159 193.832 52.4886C196.389 52.2235 198.463 51.9867 200.054 51.7784C201.645 51.5511 202.8 51.2102 203.52 50.7557C204.259 50.2822 204.628 49.553 204.628 48.5682V48.3977C204.628 46.2576 203.993 44.6004 202.724 43.4261C201.455 42.2519 199.628 41.6648 197.241 41.6648C194.723 41.6648 192.724 42.214 191.247 43.3125C189.789 44.411 188.804 45.7083 188.293 47.2045L178.69 45.8409C179.448 43.1894 180.698 40.9735 182.44 39.1932C184.183 37.3939 186.313 36.0492 188.832 35.1591C191.351 34.25 194.135 33.7955 197.185 33.7955C199.287 33.7955 201.38 34.0417 203.463 34.5341C205.546 35.0265 207.45 35.8409 209.173 36.9773C210.897 38.0947 212.279 39.6193 213.321 41.5511C214.382 43.483 214.912 45.8977 214.912 48.7955V78H205.026V72.0057H204.685C204.06 73.2178 203.179 74.3542 202.043 75.4148C200.925 76.4564 199.514 77.2992 197.81 77.9432C196.124 78.5682 194.145 78.8807 191.872 78.8807ZM194.543 71.3239C196.607 71.3239 198.397 70.9167 199.912 70.1023C201.427 69.2689 202.592 68.1705 203.406 66.8068C204.24 65.4432 204.656 63.9564 204.656 62.3466V57.2045C204.334 57.4697 203.785 57.7159 203.009 57.9432C202.251 58.1705 201.399 58.3693 200.452 58.5398C199.505 58.7102 198.567 58.8617 197.639 58.9943C196.711 59.1269 195.906 59.2405 195.224 59.3352C193.69 59.5436 192.317 59.8845 191.105 60.358C189.893 60.8314 188.937 61.4943 188.236 62.3466C187.535 63.1799 187.185 64.2595 187.185 65.5852C187.185 67.4792 187.876 68.9091 189.259 69.875C190.641 70.8409 192.402 71.3239 194.543 71.3239ZM225.707 78V19.8182H235.991V41.5795H236.418C236.948 40.5189 237.696 39.392 238.662 38.1989C239.628 36.9867 240.935 35.9545 242.582 35.1023C244.23 34.2311 246.332 33.7955 248.889 33.7955C252.26 33.7955 255.3 34.6572 258.009 36.3807C260.736 38.0852 262.895 40.6136 264.486 43.9659C266.096 47.2992 266.901 51.3902 266.901 56.2386C266.901 61.0303 266.115 65.1023 264.543 68.4545C262.971 71.8068 260.83 74.3636 258.122 76.125C255.414 77.8864 252.346 78.767 248.918 78.767C246.418 78.767 244.344 78.3504 242.696 77.517C241.048 76.6837 239.723 75.6799 238.719 74.5057C237.734 73.3125 236.967 72.1856 236.418 71.125H235.821V78H225.707ZM235.793 56.1818C235.793 59.0038 236.19 61.4754 236.986 63.5966C237.8 65.7178 238.965 67.375 240.48 68.5682C242.014 69.7424 243.87 70.3295 246.048 70.3295C248.321 70.3295 250.224 69.7235 251.759 68.5114C253.293 67.2803 254.448 65.6042 255.224 63.483C256.02 61.3428 256.418 58.9091 256.418 56.1818C256.418 53.4735 256.029 51.0682 255.253 48.9659C254.476 46.8636 253.321 45.2159 251.787 44.0227C250.253 42.8295 248.34 42.233 246.048 42.233C243.851 42.233 241.986 42.8106 240.452 43.9659C238.918 45.1212 237.753 46.7405 236.957 48.8239C236.181 50.9072 235.793 53.3598 235.793 56.1818ZM276.098 78V19.8182H286.382V41.5795H286.808C287.339 40.5189 288.087 39.392 289.053 38.1989C290.018 36.9867 291.325 35.9545 292.973 35.1023C294.621 34.2311 296.723 33.7955 299.28 33.7955C302.651 33.7955 305.691 34.6572 308.399 36.3807C311.126 38.0852 313.286 40.6136 314.876 43.9659C316.486 47.2992 317.291 51.3902 317.291 56.2386C317.291 61.0303 316.505 65.1023 314.933 68.4545C313.361 71.8068 311.221 74.3636 308.513 76.125C305.804 77.8864 302.736 78.767 299.308 78.767C296.808 78.767 294.734 78.3504 293.087 77.517C291.439 76.6837 290.113 75.6799 289.109 74.5057C288.125 73.3125 287.357 72.1856 286.808 71.125H286.212V78H276.098ZM286.183 56.1818C286.183 59.0038 286.581 61.4754 287.376 63.5966C288.191 65.7178 289.356 67.375 290.871 68.5682C292.405 69.7424 294.261 70.3295 296.439 70.3295C298.712 70.3295 300.615 69.7235 302.149 68.5114C303.683 67.2803 304.839 65.6042 305.615 63.483C306.411 61.3428 306.808 58.9091 306.808 56.1818C306.808 53.4735 306.42 51.0682 305.643 48.9659C304.867 46.8636 303.712 45.2159 302.178 44.0227C300.643 42.8295 298.731 42.233 296.439 42.233C294.242 42.233 292.376 42.8106 290.842 43.9659C289.308 45.1212 288.143 46.7405 287.348 48.8239C286.571 50.9072 286.183 53.3598 286.183 56.1818ZM326.034 78V34.3636H336.318V78H326.034ZM331.205 28.1705C329.576 28.1705 328.174 27.6307 327 26.5511C325.826 25.4526 325.239 24.1364 325.239 22.6023C325.239 21.0492 325.826 19.733 327 18.6534C328.174 17.5549 329.576 17.0057 331.205 17.0057C332.852 17.0057 334.254 17.5549 335.409 18.6534C336.583 19.733 337.17 21.0492 337.17 22.6023C337.17 24.1364 336.583 25.4526 335.409 26.5511C334.254 27.6307 332.852 28.1705 331.205 28.1705ZM368.683 34.3636V42.3182H343.598V34.3636H368.683ZM349.791 23.9091H360.075V64.875C360.075 66.2576 360.284 67.3182 360.7 68.0568C361.136 68.7765 361.704 69.2689 362.405 69.5341C363.106 69.7992 363.882 69.9318 364.734 69.9318C365.378 69.9318 365.965 69.8845 366.496 69.7898C367.045 69.6951 367.462 69.6098 367.746 69.5341L369.479 77.5739C368.929 77.7633 368.143 77.9716 367.121 78.1989C366.117 78.4261 364.886 78.5587 363.428 78.5966C360.852 78.6723 358.532 78.2841 356.467 77.4318C354.403 76.5606 352.765 75.2159 351.553 73.3977C350.359 71.5795 349.772 69.3068 349.791 66.5795V23.9091ZM395.849 78.8523C391.588 78.8523 387.895 77.9148 384.77 76.0398C381.645 74.1648 379.221 71.5417 377.497 68.1705C375.793 64.7992 374.94 60.8598 374.94 56.3523C374.94 51.8447 375.793 47.8958 377.497 44.5057C379.221 41.1155 381.645 38.483 384.77 36.608C387.895 34.733 391.588 33.7955 395.849 33.7955C400.111 33.7955 403.804 34.733 406.929 36.608C410.054 38.483 412.469 41.1155 414.173 44.5057C415.897 47.8958 416.759 51.8447 416.759 56.3523C416.759 60.8598 415.897 64.7992 414.173 68.1705C412.469 71.5417 410.054 74.1648 406.929 76.0398C403.804 77.9148 400.111 78.8523 395.849 78.8523ZM395.906 70.6136C398.217 70.6136 400.149 69.9792 401.702 68.7102C403.255 67.4223 404.41 65.6989 405.168 63.5398C405.944 61.3807 406.332 58.9754 406.332 56.3239C406.332 53.6534 405.944 51.2386 405.168 49.0795C404.41 46.9015 403.255 45.1686 401.702 43.8807C400.149 42.5928 398.217 41.9489 395.906 41.9489C393.539 41.9489 391.569 42.5928 389.997 43.8807C388.444 45.1686 387.279 46.9015 386.503 49.0795C385.745 51.2386 385.366 53.6534 385.366 56.3239C385.366 58.9754 385.745 61.3807 386.503 63.5398C387.279 65.6989 388.444 67.4223 389.997 68.7102C391.569 69.9792 393.539 70.6136 395.906 70.6136Z" fill="#856DAD"/>
<path d="M57.3239 112.295H53.7784C53.642 111.538 53.3883 110.871 53.017 110.295C52.6458 109.72 52.1913 109.231 51.6534 108.83C51.1155 108.428 50.5133 108.125 49.8466 107.92C49.1875 107.716 48.4867 107.614 47.7443 107.614C46.4034 107.614 45.2027 107.951 44.142 108.625C43.089 109.299 42.2557 110.288 41.642 111.591C41.036 112.894 40.733 114.485 40.733 116.364C40.733 118.258 41.036 119.856 41.642 121.159C42.2557 122.462 43.0928 123.447 44.1534 124.114C45.214 124.78 46.4072 125.114 47.733 125.114C48.4678 125.114 49.1648 125.015 49.8239 124.818C50.4905 124.614 51.0928 124.314 51.6307 123.92C52.1686 123.527 52.6231 123.045 52.9943 122.477C53.3731 121.902 53.6345 121.242 53.7784 120.5L57.3239 120.511C57.1345 121.655 56.767 122.708 56.2216 123.67C55.6837 124.625 54.9905 125.451 54.142 126.148C53.3011 126.837 52.339 127.371 51.2557 127.75C50.1723 128.129 48.9905 128.318 47.7102 128.318C45.6951 128.318 43.8996 127.841 42.3239 126.886C40.7481 125.924 39.5057 124.549 38.5966 122.761C37.6951 120.973 37.2443 118.841 37.2443 116.364C37.2443 113.879 37.6989 111.746 38.608 109.966C39.517 108.178 40.7595 106.807 42.3352 105.852C43.911 104.89 45.7027 104.409 47.7102 104.409C48.9451 104.409 50.0966 104.587 51.1648 104.943C52.2405 105.292 53.2064 105.807 54.0625 106.489C54.9186 107.163 55.6269 107.989 56.1875 108.966C56.7481 109.936 57.1269 111.045 57.3239 112.295ZM61.2528 128V110.545H64.5369V113.318H64.7188C65.0369 112.379 65.5975 111.64 66.4006 111.102C67.2112 110.557 68.1278 110.284 69.1506 110.284C69.3627 110.284 69.6127 110.292 69.9006 110.307C70.196 110.322 70.4271 110.341 70.5938 110.364V113.614C70.4574 113.576 70.215 113.534 69.8665 113.489C69.518 113.436 69.1695 113.409 68.821 113.409C68.018 113.409 67.3021 113.58 66.6733 113.92C66.0521 114.254 65.5597 114.72 65.196 115.318C64.8324 115.909 64.6506 116.583 64.6506 117.341V128H61.2528ZM80.4318 128.352C78.7121 128.352 77.2311 127.985 75.9886 127.25C74.7538 126.508 73.7992 125.466 73.125 124.125C72.4583 122.777 72.125 121.197 72.125 119.386C72.125 117.598 72.4583 116.023 73.125 114.659C73.7992 113.295 74.7386 112.231 75.9432 111.466C77.1553 110.701 78.572 110.318 80.1932 110.318C81.178 110.318 82.1326 110.481 83.0568 110.807C83.9811 111.133 84.8106 111.644 85.5455 112.341C86.2803 113.038 86.8598 113.943 87.2841 115.057C87.7083 116.163 87.9205 117.508 87.9205 119.091V120.295H74.0455V117.75H84.5909C84.5909 116.856 84.4091 116.064 84.0455 115.375C83.6818 114.678 83.1705 114.129 82.5114 113.727C81.8598 113.326 81.0947 113.125 80.2159 113.125C79.2614 113.125 78.428 113.36 77.7159 113.83C77.0114 114.292 76.4659 114.898 76.0795 115.648C75.7008 116.39 75.5114 117.197 75.5114 118.068V120.057C75.5114 121.223 75.7159 122.216 76.125 123.034C76.5417 123.852 77.1212 124.477 77.8636 124.909C78.6061 125.333 79.4735 125.545 80.4659 125.545C81.1098 125.545 81.697 125.455 82.2273 125.273C82.7576 125.083 83.2159 124.803 83.6023 124.432C83.9886 124.061 84.2841 123.602 84.4886 123.057L87.7045 123.636C87.447 124.583 86.9848 125.413 86.3182 126.125C85.6591 126.83 84.8295 127.379 83.8295 127.773C82.8371 128.159 81.7045 128.352 80.4318 128.352ZM96.7699 128.386C95.6638 128.386 94.6638 128.182 93.7699 127.773C92.8759 127.356 92.1676 126.754 91.6449 125.966C91.1297 125.178 90.8722 124.212 90.8722 123.068C90.8722 122.083 91.0616 121.273 91.4403 120.636C91.8191 120 92.3305 119.496 92.9744 119.125C93.6184 118.754 94.3381 118.473 95.1335 118.284C95.929 118.095 96.7396 117.951 97.5653 117.852C98.6108 117.731 99.4593 117.633 100.111 117.557C100.762 117.473 101.236 117.341 101.531 117.159C101.827 116.977 101.974 116.682 101.974 116.273V116.193C101.974 115.201 101.694 114.432 101.134 113.886C100.58 113.341 99.7547 113.068 98.6562 113.068C97.5123 113.068 96.6108 113.322 95.9517 113.83C95.3002 114.33 94.8494 114.886 94.5994 115.5L91.4062 114.773C91.785 113.712 92.3381 112.856 93.0653 112.205C93.8002 111.545 94.6449 111.068 95.5994 110.773C96.554 110.47 97.5578 110.318 98.6108 110.318C99.3078 110.318 100.046 110.402 100.827 110.568C101.615 110.727 102.349 111.023 103.031 111.455C103.721 111.886 104.285 112.504 104.724 113.307C105.164 114.102 105.384 115.136 105.384 116.409V128H102.065V125.614H101.929C101.709 126.053 101.38 126.485 100.94 126.909C100.501 127.333 99.9366 127.686 99.2472 127.966C98.5578 128.246 97.732 128.386 96.7699 128.386ZM97.5085 125.659C98.4479 125.659 99.2509 125.473 99.9176 125.102C100.592 124.731 101.103 124.246 101.452 123.648C101.808 123.042 101.986 122.394 101.986 121.705V119.455C101.865 119.576 101.63 119.689 101.281 119.795C100.94 119.894 100.55 119.981 100.111 120.057C99.6714 120.125 99.2434 120.189 98.8267 120.25C98.41 120.303 98.0616 120.348 97.7812 120.386C97.1222 120.47 96.5199 120.61 95.9744 120.807C95.4366 121.004 95.0047 121.288 94.679 121.659C94.3608 122.023 94.2017 122.508 94.2017 123.114C94.2017 123.955 94.5123 124.591 95.1335 125.023C95.7547 125.447 96.5464 125.659 97.5085 125.659ZM118.057 110.545V113.273H108.523V110.545H118.057ZM111.08 106.364H114.477V122.875C114.477 123.534 114.576 124.03 114.773 124.364C114.97 124.689 115.223 124.913 115.534 125.034C115.852 125.148 116.197 125.205 116.568 125.205C116.841 125.205 117.08 125.186 117.284 125.148C117.489 125.11 117.648 125.08 117.761 125.057L118.375 127.864C118.178 127.939 117.898 128.015 117.534 128.091C117.17 128.174 116.716 128.22 116.17 128.227C115.277 128.242 114.443 128.083 113.67 127.75C112.898 127.417 112.273 126.902 111.795 126.205C111.318 125.508 111.08 124.633 111.08 123.58V106.364ZM129.151 128.352C127.431 128.352 125.95 127.985 124.707 127.25C123.473 126.508 122.518 125.466 121.844 124.125C121.177 122.777 120.844 121.197 120.844 119.386C120.844 117.598 121.177 116.023 121.844 114.659C122.518 113.295 123.457 112.231 124.662 111.466C125.874 110.701 127.291 110.318 128.912 110.318C129.897 110.318 130.851 110.481 131.776 110.807C132.7 111.133 133.529 111.644 134.264 112.341C134.999 113.038 135.579 113.943 136.003 115.057C136.427 116.163 136.639 117.508 136.639 119.091V120.295H122.764V117.75H133.31C133.31 116.856 133.128 116.064 132.764 115.375C132.401 114.678 131.889 114.129 131.23 113.727C130.579 113.326 129.813 113.125 128.935 113.125C127.98 113.125 127.147 113.36 126.435 113.83C125.73 114.292 125.185 114.898 124.798 115.648C124.42 116.39 124.23 117.197 124.23 118.068V120.057C124.23 121.223 124.435 122.216 124.844 123.034C125.26 123.852 125.84 124.477 126.582 124.909C127.325 125.333 128.192 125.545 129.185 125.545C129.829 125.545 130.416 125.455 130.946 125.273C131.476 125.083 131.935 124.803 132.321 124.432C132.707 124.061 133.003 123.602 133.207 123.057L136.423 123.636C136.166 124.583 135.704 125.413 135.037 126.125C134.378 126.83 133.548 127.379 132.548 127.773C131.556 128.159 130.423 128.352 129.151 128.352ZM151.026 134.545C150.518 134.545 150.056 134.504 149.639 134.42C149.223 134.345 148.912 134.261 148.707 134.17L149.526 131.386C150.147 131.553 150.7 131.625 151.185 131.602C151.67 131.58 152.098 131.398 152.469 131.057C152.848 130.716 153.181 130.159 153.469 129.386L153.889 128.227L147.503 110.545H151.139L155.56 124.091H155.741L160.162 110.545H163.81L156.616 130.33C156.283 131.239 155.859 132.008 155.344 132.636C154.829 133.273 154.215 133.75 153.503 134.068C152.791 134.386 151.965 134.545 151.026 134.545ZM173.761 128.352C172.125 128.352 170.697 127.977 169.477 127.227C168.258 126.477 167.311 125.428 166.636 124.08C165.962 122.731 165.625 121.155 165.625 119.352C165.625 117.542 165.962 115.958 166.636 114.602C167.311 113.246 168.258 112.193 169.477 111.443C170.697 110.693 172.125 110.318 173.761 110.318C175.398 110.318 176.826 110.693 178.045 111.443C179.265 112.193 180.212 113.246 180.886 114.602C181.561 115.958 181.898 117.542 181.898 119.352C181.898 121.155 181.561 122.731 180.886 124.08C180.212 125.428 179.265 126.477 178.045 127.227C176.826 127.977 175.398 128.352 173.761 128.352ZM173.773 125.5C174.833 125.5 175.712 125.22 176.409 124.659C177.106 124.098 177.621 123.352 177.955 122.42C178.295 121.489 178.466 120.462 178.466 119.341C178.466 118.227 178.295 117.205 177.955 116.273C177.621 115.333 177.106 114.58 176.409 114.011C175.712 113.443 174.833 113.159 173.773 113.159C172.705 113.159 171.818 113.443 171.114 114.011C170.417 114.58 169.898 115.333 169.557 116.273C169.223 117.205 169.057 118.227 169.057 119.341C169.057 120.462 169.223 121.489 169.557 122.42C169.898 123.352 170.417 124.098 171.114 124.659C171.818 125.22 172.705 125.5 173.773 125.5ZM196.747 120.761V110.545H200.156V128H196.815V124.977H196.634C196.232 125.909 195.588 126.686 194.702 127.307C193.823 127.92 192.728 128.227 191.418 128.227C190.296 128.227 189.304 127.981 188.44 127.489C187.584 126.989 186.91 126.25 186.418 125.273C185.933 124.295 185.69 123.087 185.69 121.648V110.545H189.088V121.239C189.088 122.428 189.418 123.375 190.077 124.08C190.736 124.784 191.592 125.136 192.645 125.136C193.281 125.136 193.914 124.977 194.543 124.659C195.179 124.341 195.705 123.86 196.122 123.216C196.546 122.572 196.755 121.754 196.747 120.761ZM204.722 128V110.545H208.006V113.318H208.188C208.506 112.379 209.066 111.64 209.869 111.102C210.68 110.557 211.597 110.284 212.619 110.284C212.831 110.284 213.081 110.292 213.369 110.307C213.665 110.322 213.896 110.341 214.062 110.364V113.614C213.926 113.576 213.684 113.534 213.335 113.489C212.987 113.436 212.638 113.409 212.29 113.409C211.487 113.409 210.771 113.58 210.142 113.92C209.521 114.254 209.028 114.72 208.665 115.318C208.301 115.909 208.119 116.583 208.119 117.341V128H204.722ZM233.778 110.545V113.273H223.915V110.545H233.778ZM226.619 128V108.523C226.619 107.432 226.858 106.527 227.335 105.807C227.813 105.08 228.445 104.538 229.233 104.182C230.021 103.818 230.877 103.636 231.801 103.636C232.483 103.636 233.066 103.693 233.551 103.807C234.036 103.913 234.396 104.011 234.631 104.102L233.835 106.852C233.676 106.807 233.472 106.754 233.222 106.693C232.972 106.625 232.669 106.591 232.312 106.591C231.487 106.591 230.896 106.795 230.54 107.205C230.191 107.614 230.017 108.205 230.017 108.977V128H226.619ZM237.284 128V110.545H240.568V113.318H240.75C241.068 112.379 241.629 111.64 242.432 111.102C243.242 110.557 244.159 110.284 245.182 110.284C245.394 110.284 245.644 110.292 245.932 110.307C246.227 110.322 246.458 110.341 246.625 110.364V113.614C246.489 113.576 246.246 113.534 245.898 113.489C245.549 113.436 245.201 113.409 244.852 113.409C244.049 113.409 243.333 113.58 242.705 113.92C242.083 114.254 241.591 114.72 241.227 115.318C240.864 115.909 240.682 116.583 240.682 117.341V128H237.284ZM256.463 128.352C254.743 128.352 253.262 127.985 252.02 127.25C250.785 126.508 249.83 125.466 249.156 124.125C248.49 122.777 248.156 121.197 248.156 119.386C248.156 117.598 248.49 116.023 249.156 114.659C249.83 113.295 250.77 112.231 251.974 111.466C253.187 110.701 254.603 110.318 256.224 110.318C257.209 110.318 258.164 110.481 259.088 110.807C260.012 111.133 260.842 111.644 261.577 112.341C262.312 113.038 262.891 113.943 263.315 115.057C263.74 116.163 263.952 117.508 263.952 119.091V120.295H250.077V117.75H260.622C260.622 116.856 260.44 116.064 260.077 115.375C259.713 114.678 259.202 114.129 258.543 113.727C257.891 113.326 257.126 113.125 256.247 113.125C255.293 113.125 254.459 113.36 253.747 113.83C253.043 114.292 252.497 114.898 252.111 115.648C251.732 116.39 251.543 117.197 251.543 118.068V120.057C251.543 121.223 251.747 122.216 252.156 123.034C252.573 123.852 253.152 124.477 253.895 124.909C254.637 125.333 255.505 125.545 256.497 125.545C257.141 125.545 257.728 125.455 258.259 125.273C258.789 125.083 259.247 124.803 259.634 124.432C260.02 124.061 260.315 123.602 260.52 123.057L263.736 123.636C263.478 124.583 263.016 125.413 262.349 126.125C261.69 126.83 260.861 127.379 259.861 127.773C258.868 128.159 257.736 128.352 256.463 128.352ZM275.244 128.352C273.525 128.352 272.044 127.985 270.801 127.25C269.566 126.508 268.612 125.466 267.938 124.125C267.271 122.777 266.938 121.197 266.938 119.386C266.938 117.598 267.271 116.023 267.938 114.659C268.612 113.295 269.551 112.231 270.756 111.466C271.968 110.701 273.384 110.318 275.006 110.318C275.991 110.318 276.945 110.481 277.869 110.807C278.794 111.133 279.623 111.644 280.358 112.341C281.093 113.038 281.672 113.943 282.097 115.057C282.521 116.163 282.733 117.508 282.733 119.091V120.295H268.858V117.75H279.403C279.403 116.856 279.222 116.064 278.858 115.375C278.494 114.678 277.983 114.129 277.324 113.727C276.672 113.326 275.907 113.125 275.028 113.125C274.074 113.125 273.241 113.36 272.528 113.83C271.824 114.292 271.278 114.898 270.892 115.648C270.513 116.39 270.324 117.197 270.324 118.068V120.057C270.324 121.223 270.528 122.216 270.938 123.034C271.354 123.852 271.934 124.477 272.676 124.909C273.419 125.333 274.286 125.545 275.278 125.545C275.922 125.545 276.509 125.455 277.04 125.273C277.57 125.083 278.028 124.803 278.415 124.432C278.801 124.061 279.097 123.602 279.301 123.057L282.517 123.636C282.259 124.583 281.797 125.413 281.131 126.125C280.472 126.83 279.642 127.379 278.642 127.773C277.65 128.159 276.517 128.352 275.244 128.352ZM300.051 128.386C298.945 128.386 297.945 128.182 297.051 127.773C296.157 127.356 295.449 126.754 294.926 125.966C294.411 125.178 294.153 124.212 294.153 123.068C294.153 122.083 294.343 121.273 294.722 120.636C295.1 120 295.612 119.496 296.256 119.125C296.9 118.754 297.619 118.473 298.415 118.284C299.21 118.095 300.021 117.951 300.847 117.852C301.892 117.731 302.741 117.633 303.392 117.557C304.044 117.473 304.517 117.341 304.812 117.159C305.108 116.977 305.256 116.682 305.256 116.273V116.193C305.256 115.201 304.975 114.432 304.415 113.886C303.862 113.341 303.036 113.068 301.938 113.068C300.794 113.068 299.892 113.322 299.233 113.83C298.581 114.33 298.131 114.886 297.881 115.5L294.688 114.773C295.066 113.712 295.619 112.856 296.347 112.205C297.081 111.545 297.926 111.068 298.881 110.773C299.835 110.47 300.839 110.318 301.892 110.318C302.589 110.318 303.328 110.402 304.108 110.568C304.896 110.727 305.631 111.023 306.312 111.455C307.002 111.886 307.566 112.504 308.006 113.307C308.445 114.102 308.665 115.136 308.665 116.409V128H305.347V125.614H305.21C304.991 126.053 304.661 126.485 304.222 126.909C303.782 127.333 303.218 127.686 302.528 127.966C301.839 128.246 301.013 128.386 300.051 128.386ZM300.79 125.659C301.729 125.659 302.532 125.473 303.199 125.102C303.873 124.731 304.384 124.246 304.733 123.648C305.089 123.042 305.267 122.394 305.267 121.705V119.455C305.146 119.576 304.911 119.689 304.562 119.795C304.222 119.894 303.831 119.981 303.392 120.057C302.953 120.125 302.525 120.189 302.108 120.25C301.691 120.303 301.343 120.348 301.062 120.386C300.403 120.47 299.801 120.61 299.256 120.807C298.718 121.004 298.286 121.288 297.96 121.659C297.642 122.023 297.483 122.508 297.483 123.114C297.483 123.955 297.794 124.591 298.415 125.023C299.036 125.447 299.828 125.659 300.79 125.659ZM320.543 128.352C318.853 128.352 317.399 127.97 316.179 127.205C314.967 126.432 314.035 125.367 313.384 124.011C312.732 122.655 312.406 121.102 312.406 119.352C312.406 117.58 312.74 116.015 313.406 114.659C314.073 113.295 315.012 112.231 316.224 111.466C317.437 110.701 318.865 110.318 320.509 110.318C321.834 110.318 323.016 110.564 324.054 111.057C325.092 111.542 325.929 112.223 326.565 113.102C327.209 113.981 327.592 115.008 327.713 116.182H324.406C324.224 115.364 323.808 114.659 323.156 114.068C322.512 113.477 321.649 113.182 320.565 113.182C319.618 113.182 318.789 113.432 318.077 113.932C317.372 114.424 316.823 115.129 316.429 116.045C316.035 116.955 315.838 118.03 315.838 119.273C315.838 120.545 316.031 121.644 316.418 122.568C316.804 123.492 317.349 124.208 318.054 124.716C318.766 125.223 319.603 125.477 320.565 125.477C321.209 125.477 321.793 125.36 322.315 125.125C322.846 124.883 323.289 124.538 323.645 124.091C324.009 123.644 324.262 123.106 324.406 122.477H327.713C327.592 123.606 327.224 124.614 326.611 125.5C325.997 126.386 325.175 127.083 324.145 127.591C323.122 128.098 321.921 128.352 320.543 128.352ZM338.699 128.352C337.009 128.352 335.555 127.97 334.335 127.205C333.123 126.432 332.191 125.367 331.54 124.011C330.888 122.655 330.562 121.102 330.562 119.352C330.562 117.58 330.896 116.015 331.562 114.659C332.229 113.295 333.169 112.231 334.381 111.466C335.593 110.701 337.021 110.318 338.665 110.318C339.991 110.318 341.172 110.564 342.21 111.057C343.248 111.542 344.085 112.223 344.722 113.102C345.366 113.981 345.748 115.008 345.869 116.182H342.562C342.381 115.364 341.964 114.659 341.312 114.068C340.669 113.477 339.805 113.182 338.722 113.182C337.775 113.182 336.945 113.432 336.233 113.932C335.528 114.424 334.979 115.129 334.585 116.045C334.191 116.955 333.994 118.03 333.994 119.273C333.994 120.545 334.188 121.644 334.574 122.568C334.96 123.492 335.506 124.208 336.21 124.716C336.922 125.223 337.759 125.477 338.722 125.477C339.366 125.477 339.949 125.36 340.472 125.125C341.002 124.883 341.445 124.538 341.801 124.091C342.165 123.644 342.419 123.106 342.562 122.477H345.869C345.748 123.606 345.381 124.614 344.767 125.5C344.153 126.386 343.331 127.083 342.301 127.591C341.278 128.098 340.078 128.352 338.699 128.352ZM356.855 128.352C355.219 128.352 353.791 127.977 352.571 127.227C351.351 126.477 350.404 125.428 349.73 124.08C349.056 122.731 348.719 121.155 348.719 119.352C348.719 117.542 349.056 115.958 349.73 114.602C350.404 113.246 351.351 112.193 352.571 111.443C353.791 110.693 355.219 110.318 356.855 110.318C358.491 110.318 359.92 110.693 361.139 111.443C362.359 112.193 363.306 113.246 363.98 114.602C364.654 115.958 364.991 117.542 364.991 119.352C364.991 121.155 364.654 122.731 363.98 124.08C363.306 125.428 362.359 126.477 361.139 127.227C359.92 127.977 358.491 128.352 356.855 128.352ZM356.866 125.5C357.927 125.5 358.806 125.22 359.503 124.659C360.2 124.098 360.715 123.352 361.048 122.42C361.389 121.489 361.56 120.462 361.56 119.341C361.56 118.227 361.389 117.205 361.048 116.273C360.715 115.333 360.2 114.58 359.503 114.011C358.806 113.443 357.927 113.159 356.866 113.159C355.798 113.159 354.912 113.443 354.207 114.011C353.51 114.58 352.991 115.333 352.651 116.273C352.317 117.205 352.151 118.227 352.151 119.341C352.151 120.462 352.317 121.489 352.651 122.42C352.991 123.352 353.51 124.098 354.207 124.659C354.912 125.22 355.798 125.5 356.866 125.5ZM379.841 120.761V110.545H383.25V128H379.909V124.977H379.727C379.326 125.909 378.682 126.686 377.795 127.307C376.917 127.92 375.822 128.227 374.511 128.227C373.39 128.227 372.398 127.981 371.534 127.489C370.678 126.989 370.004 126.25 369.511 125.273C369.027 124.295 368.784 123.087 368.784 121.648V110.545H372.182V121.239C372.182 122.428 372.511 123.375 373.17 124.08C373.83 124.784 374.686 125.136 375.739 125.136C376.375 125.136 377.008 124.977 377.636 124.659C378.273 124.341 378.799 123.86 379.216 123.216C379.64 122.572 379.848 121.754 379.841 120.761ZM391.213 117.636V128H387.815V110.545H391.077V113.386H391.293C391.694 112.462 392.323 111.72 393.179 111.159C394.043 110.598 395.13 110.318 396.44 110.318C397.63 110.318 398.671 110.568 399.565 111.068C400.459 111.561 401.152 112.295 401.645 113.273C402.137 114.25 402.384 115.458 402.384 116.898V128H398.986V117.307C398.986 116.042 398.656 115.053 397.997 114.341C397.338 113.621 396.433 113.261 395.281 113.261C394.493 113.261 393.793 113.432 393.179 113.773C392.573 114.114 392.092 114.614 391.736 115.273C391.387 115.924 391.213 116.712 391.213 117.636ZM415.088 110.545V113.273H405.554V110.545H415.088ZM408.111 106.364H411.509V122.875C411.509 123.534 411.607 124.03 411.804 124.364C412.001 124.689 412.255 124.913 412.565 125.034C412.884 125.148 413.228 125.205 413.599 125.205C413.872 125.205 414.111 125.186 414.315 125.148C414.52 125.11 414.679 125.08 414.793 125.057L415.406 127.864C415.209 127.939 414.929 128.015 414.565 128.091C414.202 128.174 413.747 128.22 413.202 128.227C412.308 128.242 411.474 128.083 410.702 127.75C409.929 127.417 409.304 126.902 408.827 126.205C408.349 125.508 408.111 124.633 408.111 123.58V106.364Z" fill="#856DAD"/>
</svg>
